<?xml version="1.0" encoding="utf-8"?>
<!-- Generator: Adobe Illustrator 15.1.0, SVG Export Plug-In . SVG Version: 6.00 Build 0)  -->
<!DOCTYPE svg PUBLIC "-//W3C//DTD SVG 1.1//EN" "http://www.w3.org/Graphics/SVG/1.1/DTD/svg11.dtd">
<svg version="1.1" id="Layer_1" xmlns="http://www.w3.org/2000/svg" xmlns:xlink="http://www.w3.org/1999/xlink" x="0px" y="0px"
	 width="794px" height="218px" viewBox="0 0 794 218" enable-background="new 0 0 794 218" xml:space="preserve">
<polygon fill="#002D44" points="755.547,129 80.468,129 61.439,60 736.52,60 "/>
<linearGradient id="SVGID_1_" gradientUnits="userSpaceOnUse" x1="403.0161" y1="53" x2="403.0161" y2="122.0005">
	<stop  offset="0" style="stop-color:#9C525E"/>
	<stop  offset="0.0327" style="stop-color:#AD626A"/>
	<stop  offset="0.1131" style="stop-color:#D38B8B"/>
	<stop  offset="0.1764" style="stop-color:#EBA8A3"/>
	<stop  offset="0.2143" style="stop-color:#F3B3AC"/>
	<stop  offset="0.2475" style="stop-color:#EC9A98"/>
	<stop  offset="0.2875" style="stop-color:#E68487"/>
	<stop  offset="0.3301" style="stop-color:#E2757C"/>
	<stop  offset="0.3766" style="stop-color:#DF6C76"/>
	<stop  offset="0.4345" style="stop-color:#DF6975"/>
	<stop  offset="0.4623" style="stop-color:#DF6975"/>
	<stop  offset="0.631" style="stop-color:#DF6975"/>
	<stop  offset="0.6499" style="stop-color:#DB6873"/>
	<stop  offset="0.8844" style="stop-color:#AE5864"/>
	<stop  offset="1" style="stop-color:#9C525E"/>
</linearGradient>
<polygon fill="url(#SVGID_1_)" points="744.733,122 80.035,122 61.299,53 725.998,53 "/>
<g>
	<path fill="#010201" d="M69.321,190c-10.75,0-26.04-8.578-28.559-18.859c-1.077-4.396-0.28-10.602,9.63-15.77
		c6.426-3.349,13.443-4.987,20.856-4.987c10.351,0,19.031,3.288,23.694,5.479L36.559,34.513l69.896-20.576l-1.786,36.677
		L68.022,67.548l44.727,95.1l0.032,0.159c0.055,0.27,1.286,6.686-3.841,13.367c-6.368,8.298-19.286,12.86-38.396,14.025
		c-0.402,0.024-0.808-0.199-1.221-0.199C69.322,190,69.322,190,69.321,190z"/>
	<g>
		<path fill="#FFFFFF" d="M105.021,15.765c-1.131,23.224-1.654,33.975-1.654,33.975L66.232,66.898l45.233,96.176
			c0,0,4.729,23.232-41.003,26.021c-0.376,0.023-0.755,0.034-1.142,0.034c-16.448,0-41.211-20.508-18.308-32.45
			c6.948-3.621,13.896-4.896,20.236-4.896c15.049,0,26.663,7.181,26.663,7.181L38.453,35.369L105.021,15.765 M107.887,12.123
			l-3.624,1.067L37.695,32.793l-3.03,0.892l1.369,2.847l56.145,116.71c-5.07-2.007-12.458-4.143-20.93-4.143
			c-7.632,0-14.857,1.749-21.477,5.199c-11.246,5.864-11.289,13.418-10.313,17.398c2.731,11.144,18.569,20.117,29.862,20.117
			c0.44,0,0.879-0.014,1.306-0.039c19.514-1.19,32.763-6.164,39.378-14.784c5.496-7.162,4.151-14.158,4.092-14.452l-0.064-0.316
			l-0.137-0.291l-44.083-93.73l34.681-16.024l1.477-0.682l0.079-1.625l1.654-33.975L107.887,12.123L107.887,12.123z"/>
	</g>
</g>
<g>
	<g>
		<path fill="#010201" d="M107.529,150.563l7.612-25.851l23.673,6.967l-7.61,25.855L107.529,150.563z M119.245,116.589l1.687-5.257
			c2.795-9.497,5.448-15.778,8.101-19.173c2.682-3.439,7.603-6.745,15.042-10.103c6.924-3.117,11.975-6.069,15.013-8.777
			c2.944-2.625,5.188-6.507,6.67-11.539c1.673-5.681,1.557-10.403-0.345-14.036c-1.923-3.668-5.209-6.144-10.047-7.568
			c-1.883-0.554-3.708-0.835-5.424-0.835c-8.528,0-15.374,7.073-20.349,21.022l-0.517,1.451l-19.735-10.269l0.444-1.125
			c8.283-21,21.097-31.648,38.084-31.648c4.522,0,9.409,0.764,14.524,2.27c11.71,3.447,20.125,9.586,25.009,18.245
			c4.891,8.672,5.697,18.76,2.395,29.981c-1.643,5.579-4.48,10.859-8.434,15.693c-3.973,4.871-11.349,9.61-21.923,14.086
			c-6.903,2.939-11.354,5.51-13.227,7.64c-1.874,2.133-3.45,5.345-4.686,9.545l-1.765,6.434L119.245,116.589z"/>
		<path fill="#FFFFFF" d="M147.867,20.075c4.415,0,9.129,0.738,14.145,2.215c11.415,3.36,19.489,9.232,24.219,17.617
			c4.728,8.383,5.487,18.029,2.276,28.942c-1.599,5.429-4.324,10.501-8.186,15.223c-3.855,4.727-10.995,9.292-21.407,13.699
			c-7.134,3.038-11.701,5.704-13.711,7.99c-2.009,2.287-3.668,5.641-4.966,10.053l-1.41,5.139l-17.884-5.264l1.267-3.947
			c2.729-9.272,5.355-15.526,7.88-18.757c2.521-3.233,7.364-6.468,14.536-9.705c7.084-3.188,12.204-6.191,15.354-8.999
			c3.15-2.809,5.504-6.862,7.064-12.161c1.783-6.056,1.636-11.066-0.443-15.038c-2.08-3.969-5.699-6.715-10.856-8.233
			c-2.015-0.593-3.951-0.89-5.804-0.89c-9.2,0-16.403,7.304-21.613,21.914l-17.296-8.999
			C119.13,30.342,131.408,20.075,147.867,20.075 M116.05,126.379l21.098,6.209l-6.853,23.279l-21.099-6.213L116.05,126.379
			 M147.867,17.391c-17.594,0-30.827,10.934-39.333,32.498l-0.887,2.25l2.146,1.116l17.296,8.999l2.733,1.422l1.035-2.901
			c4.764-13.358,11.185-20.131,19.084-20.131c1.588,0,3.286,0.263,5.046,0.78c4.47,1.316,7.491,3.575,9.236,6.904
			c1.734,3.313,1.817,7.698,0.246,13.034c-1.41,4.788-3.521,8.46-6.276,10.916c-2.935,2.617-7.871,5.495-14.669,8.555
			c-7.645,3.451-12.731,6.886-15.551,10.502c-2.754,3.525-5.479,9.943-8.329,19.618l-1.257,3.917l-0.84,2.619l2.639,0.776
			l17.884,5.264l2.623,0.772l0.724-2.637l1.41-5.139c1.167-3.965,2.649-7.006,4.394-8.992c1.194-1.358,4.376-3.727,12.746-7.292
			c10.924-4.624,18.265-9.358,22.436-14.472c4.066-4.971,6.987-10.41,8.681-16.161c3.408-11.583,2.563-22.02-2.513-31.02
			c-5.062-8.975-13.742-15.324-25.799-18.874C157.531,18.173,152.517,17.391,147.867,17.391L147.867,17.391z M114.233,123.046
			l-0.758,2.575l-6.854,23.275l-0.758,2.575l2.575,0.758l21.099,6.213l2.576,0.759l0.758-2.576l6.853-23.279l0.758-2.575
			l-2.576-0.758l-21.098-6.209L114.233,123.046L114.233,123.046z"/>
	</g>
</g>
<g>
	<g>
		<path stroke="#FFFFFF" stroke-width="2.1876" stroke-miterlimit="10" d="M202.054,76.224v1.347c0,3.756-0.064,6.875-0.192,9.358
			c-0.128,2.483-0.6,5.122-1.416,7.916s-2.093,5.4-3.834,7.819s-3.742,4.494-6.005,6.225c-2.263,1.731-4.897,3.119-7.901,4.163
			l-2.364-6.65c5.442-2.107,9.129-5.103,11.062-8.987c1.933-3.884,2.899-9.188,2.899-15.913l-0.055-5.277H202.054z M222.447,68.638
			c-0.202,1.521-0.972,3.962-2.309,7.324c-1.338,3.362-3.367,6.678-6.088,9.949c-2.721,3.271-5.346,5.785-7.874,7.544l-4.232-5.689
			c2.364-1.576,4.617-3.673,6.761-6.294c2.144-2.62,3.82-5.231,5.03-7.833h-33.118v-7.091h39.769L222.447,68.638z"/>
		<path stroke="#FFFFFF" stroke-width="2.1876" stroke-miterlimit="10" d="M266.091,109.727H225.14v-7.833h40.951V109.727z
			 M263.562,78.367h-35.398v-7.531h35.398V78.367z"/>
		<path stroke="#FFFFFF" stroke-width="2.1876" stroke-miterlimit="10" d="M305.969,65.478c-1.118,8.428-3.473,16.188-7.063,23.278
			c3.554,3.17,7.237,6.844,11.048,11.021l-5.057,6.348c-2.144-2.931-5.451-6.485-9.921-10.663
			c-5.497,8.483-12.377,14.31-20.64,17.479l-4.178-6.816c3.225-1.227,6.495-3.183,9.812-5.867c3.316-2.684,6.101-5.978,8.355-9.88
			c-2.254-2.125-6.477-5.561-12.67-10.306l3.875-5.854c4.855,3.426,9.042,6.66,12.56,9.702c3.078-6.339,5.039-12.808,5.881-19.403
			L305.969,65.478z"/>
		<path stroke="#FFFFFF" stroke-width="2.1876" stroke-miterlimit="10" d="M352.417,106.235l-2.638,7.421
			c-10.334-4.195-22.097-6.916-35.289-8.162l1.154-7.256c6.468,0.385,12.542,1.223,18.222,2.515
			C339.545,102.044,345.729,103.872,352.417,106.235z M351.564,71.963l-2.336,7.311c-9.271-3.169-19.605-5.459-31.001-6.871
			l1.154-6.926C329.733,66.559,340.461,68.72,351.564,71.963z M347.744,86.997l-1.924,7.311c-7.714-2.749-16.692-4.718-26.934-5.909
			l1.099-7.036C330.301,82.554,339.554,84.432,347.744,86.997z"/>
		<path stroke="#FFFFFF" stroke-width="2.1876" stroke-miterlimit="10" d="M391.553,111.348h-36.746v-6.129h20.036l2.474-23.416
			H359.37v-6.074h25.367l-3.051,29.49h9.867V111.348z"/>
		<path stroke="#FFFFFF" stroke-width="2.1876" stroke-miterlimit="10" d="M438.138,92.824h-40.401v-7.311h40.401V92.824z"/>
		<path stroke="#FFFFFF" stroke-width="2.1876" stroke-miterlimit="10" d="M467.518,86.145l-2.996,6.926
			c-3.262-1.777-5.941-3.115-8.039-4.013c-2.098-0.897-5.602-2.208-10.512-3.93l2.528-6.486c3.06,0.788,5.845,1.681,8.354,2.68
			S462.918,83.928,467.518,86.145z M487.195,84.001c-3.664,8.667-8.543,15.299-14.635,19.898s-13.416,7.402-21.973,8.41
			l-2.199-7.366c7.256-0.971,13.499-3.252,18.73-6.843c5.23-3.591,9.725-9.455,13.48-17.59L487.195,84.001z M471.777,72.678
			l-3.105,6.871c-1.594-0.897-3.243-1.786-4.947-2.666c-1.703-0.879-3.088-1.529-4.15-1.951l-9.234-3.71l2.557-6.349
			C457.586,66.174,463.881,68.775,471.777,72.678z M479.527,75.124l-3.93,1.402c-1.081-2.657-2.354-5.396-3.82-8.218l3.875-1.401
			C477.357,70.187,478.648,72.925,479.527,75.124z M487.801,74.327l-3.931,1.457c-1.374-3.39-2.593-6.147-3.655-8.272l3.766-1.402
			C485.244,68.51,486.518,71.249,487.801,74.327z"/>
		<path stroke="#FFFFFF" stroke-width="2.1876" stroke-miterlimit="10" d="M502.669,93.511l-6.376,2.199
			c-1.264-5.735-3.216-11.754-5.854-18.057l5.854-2.418c0.842,1.998,1.662,4.054,2.459,6.17
			C499.55,83.521,500.855,87.556,502.669,93.511z M525.15,74.932c-0.788,11.525-3.362,20.42-7.723,26.687
			c-4.36,6.267-10.719,10.096-19.074,11.488l-2.583-5.744c7.256-1.319,12.679-4.612,16.271-9.88
			c3.591-5.268,5.717-13.022,6.376-23.265L525.15,74.932z M513.03,90.817l-6.046,2.363c-1.246-5.625-3.216-11.689-5.909-18.194
			l5.497-2.418c1.392,3.133,2.367,5.487,2.927,7.063C510.058,81.208,511.234,84.936,513.03,90.817z"/>
		<path stroke="#FFFFFF" stroke-width="2.1876" stroke-miterlimit="10" d="M569.729,69.133l-0.302,5.249
			c-0.605,10.279-3.399,18.584-8.383,24.914c-4.984,6.331-12.478,10.879-22.481,13.646l-2.144-7.338
			c6.907-1.667,12.463-4.819,16.668-9.455c4.205-4.635,6.968-11.259,8.287-19.871h-13.303c-3.737,7.476-8.63,13.431-14.676,17.864
			l-4.837-5.799c8.208-6.431,13.613-14.933,16.215-25.505l7.723,0.962c-0.55,2.089-1.063,3.866-1.539,5.332H569.729z"/>
		<path stroke="#FFFFFF" stroke-width="2.1876" stroke-miterlimit="10" d="M615.215,69.133l-0.302,5.249
			c-0.605,10.279-3.399,18.584-8.383,24.914c-4.984,6.331-12.478,10.879-22.481,13.646l-2.144-7.338
			c6.907-1.667,12.463-4.819,16.668-9.455c4.205-4.635,6.968-11.259,8.287-19.871h-13.303c-3.737,7.476-8.63,13.431-14.676,17.864
			l-4.837-5.799c8.208-6.431,13.613-14.933,16.215-25.505l7.723,0.962c-0.55,2.089-1.063,3.866-1.539,5.332H615.215z"/>
		<path stroke="#FFFFFF" stroke-width="2.1876" stroke-miterlimit="10" d="M647.976,112.584h-7.86V87.657
			c-5.46,3.5-11.553,6.257-18.276,8.272l-2.007-7.201c7.732-2.309,14.516-5.707,20.352-10.196
			c5.836-4.489,10.293-9.647,13.371-15.474l7.118,3.051c-2.291,4.232-4.416,7.521-6.376,9.867c-1.961,2.346-4.067,4.489-6.321,6.431
			V112.584z"/>
		<path stroke="#FFFFFF" stroke-width="2.1876" stroke-miterlimit="10" d="M708.467,107.143l-5.965,5.908
			c-2.418-3.535-7.09-9.298-14.017-17.287c-6.339,7.86-12.844,13.677-19.513,17.453l-4.865-6.486
			c6.12-3.481,11.635-8.021,16.546-13.618c4.91-5.597,8.501-11.887,10.773-18.868l-21.438-0.027v-7.201h28.886l1.813,2.171
			c-0.972,4.672-2.07,8.497-3.298,11.475s-2.776,6.06-4.645,9.248C698.993,96.341,704.233,102.085,708.467,107.143z M706.955,69.71
			l-3.931,1.401c-1.081-2.656-2.354-5.396-3.82-8.217l3.875-1.402C704.783,64.772,706.075,67.511,706.955,69.71z M715.228,68.913
			l-3.931,1.457c-1.374-3.39-2.593-6.147-3.655-8.273l3.766-1.401C712.671,63.096,713.944,65.834,715.228,68.913z"/>
	</g>
</g>
<g>
	<path d="M139.929,186.467l24.125-48.805h0.719l23.602,48.805h-11.817l-3.003-6.887h-19.195l-3.068,6.887H139.929z M157.623,171.418
		h12.438l-6.137-14.82L157.623,171.418z"/>
	<path d="M200.747,186.467h-10.218v-29.412h9.434v4.93c1.567-1.938,3.232-3.379,4.995-4.326c1.763-0.947,3.678-1.42,5.746-1.42
		c3.112,0,5.473,0.893,7.084,2.676c1.61,1.785,2.416,4.396,2.416,7.836v19.717h-10.153v-16.844c0-1.545-0.315-2.711-0.947-3.494
		s-1.567-1.174-2.807-1.174c-1.785,0-3.156,0.598-4.113,1.795c-0.958,1.197-1.437,2.938-1.437,5.223V186.467z"/>
	<path d="M226.961,146.086c0-1.568,0.544-2.895,1.632-3.982c1.088-1.088,2.416-1.633,3.983-1.633c1.588,0,2.921,0.539,3.999,1.615
		c1.077,1.078,1.616,2.41,1.616,4c0,1.566-0.544,2.904-1.632,4.016c-1.088,1.109-2.416,1.664-3.982,1.664
		c-1.524,0-2.84-0.561-3.95-1.682S226.961,147.631,226.961,146.086z M237.799,186.467h-10.349v-29.412l10.349-1.404V186.467z"/>
	<path d="M275.047,186.467h-10.218v-16.844c0-1.502-0.321-2.656-0.963-3.461c-0.642-0.805-1.551-1.207-2.726-1.207
		c-1.676,0-2.987,0.609-3.934,1.828s-1.42,2.949-1.42,5.189v14.494h-10.218v-29.412h9.5v4.93c1.697-2.004,3.379-3.461,5.044-4.375
		c1.665-0.914,3.477-1.371,5.435-1.371c2.155,0,3.934,0.445,5.337,1.338c1.404,0.893,2.596,2.318,3.575,4.277
		c1.437-1.873,3.008-3.275,4.717-4.211c1.708-0.936,3.563-1.404,5.566-1.404c3.265,0,5.675,0.92,7.231,2.758
		c1.556,1.84,2.334,4.686,2.334,8.537v18.934H284.09v-16.844c0-1.502-0.321-2.656-0.963-3.461c-0.643-0.805-1.551-1.207-2.726-1.207
		c-1.698,0-3.015,0.609-3.95,1.828c-0.937,1.219-1.404,2.949-1.404,5.189V186.467z"/>
	<path d="M329.271,175.955l-1.143,9.043c-2.002,0.959-3.972,1.666-5.909,2.123s-3.896,0.686-5.876,0.686
		c-4.897,0-8.847-1.41-11.85-4.229c-3.003-2.818-4.505-6.49-4.505-11.018c0-4.723,1.643-8.711,4.93-11.965
		c3.286-3.252,7.28-4.881,11.98-4.881c4.026,0,7.329,1.191,9.908,3.576c2.579,2.383,3.869,5.467,3.869,9.254
		c0,0.588-0.044,1.523-0.13,2.809l-0.033,0.195l-0.914,1.338l-20.077,0.555c0.152,1.98,0.979,3.586,2.481,4.816
		c1.501,1.229,3.395,1.844,5.68,1.844c1.61,0,3.4-0.348,5.37-1.045C325.021,178.361,327.094,177.326,329.271,175.955z
		 M309.749,169.002l12.764-0.391v-0.457c0-1.547-0.544-2.813-1.632-3.805c-1.089-0.99-2.46-1.484-4.113-1.484
		c-1.85,0-3.395,0.539-4.636,1.615C310.892,165.559,310.097,167.064,309.749,169.002z"/>
	<path d="M353.396,186.467l9.826-48.869h0.816l17.857,30.816l16.845-30.816h0.849l9.892,48.869h-10.74l-4.016-21.611l-12.699,23.342
		h-0.75l-13.646-23.668l-4.146,21.938H353.396z"/>
	<path d="M434.028,157.055h10.153v29.412l-9.435,1.404v-5.746c-1.589,1.959-3.254,3.406-4.995,4.342s-3.646,1.404-5.713,1.404
		c-3.112,0-5.479-0.893-7.1-2.678c-1.622-1.783-2.432-4.395-2.432-7.834v-20.305h10.218v17.432c0,1.545,0.315,2.715,0.947,3.51
		c0.631,0.795,1.566,1.191,2.807,1.191c1.785,0,3.156-0.604,4.113-1.813c0.958-1.207,1.437-2.943,1.437-5.207V157.055z"/>
	<path d="M451.723,185.129v-8.096c2.589,1.654,4.603,2.77,6.039,3.346s2.764,0.865,3.982,0.865c1.066,0,1.926-0.234,2.579-0.701
		c0.653-0.469,0.979-1.084,0.979-1.846c0-0.652-0.229-1.195-0.686-1.631s-1.24-0.85-2.351-1.242l-3.787-1.338
		c-2.48-0.848-4.363-2.041-5.647-3.574c-1.284-1.535-1.926-3.346-1.926-5.436c0-2.959,1.033-5.338,3.102-7.133
		c2.066-1.795,4.82-2.693,8.259-2.693c1.589,0,3.27,0.223,5.044,0.67c1.773,0.445,3.748,1.137,5.925,2.072l-1.273,7.148
		c-1.306-1.109-2.731-1.979-4.276-2.611c-1.545-0.631-2.992-0.945-4.342-0.945c-1.001,0-1.817,0.232-2.448,0.701
		c-0.632,0.469-0.946,1.061-0.946,1.779c0,0.609,0.179,1.094,0.538,1.453c0.359,0.357,1.159,0.744,2.399,1.158l3.525,1.273
		c2.764,0.979,4.739,2.166,5.926,3.559c1.186,1.393,1.779,3.209,1.779,5.451c0,3.242-1.067,5.805-3.199,7.688
		c-2.134,1.883-5.039,2.824-8.717,2.824c-1.785,0-3.542-0.223-5.272-0.67C455.199,186.756,453.463,186.064,451.723,185.129z"/>
	<path d="M479.438,146.086c0-1.568,0.544-2.895,1.633-3.982c1.088-1.088,2.416-1.633,3.982-1.633c1.588,0,2.922,0.539,3.999,1.615
		c1.077,1.078,1.616,2.41,1.616,4c0,1.566-0.545,2.904-1.633,4.016c-1.088,1.109-2.415,1.664-3.982,1.664
		c-1.523,0-2.84-0.561-3.95-1.682C479.993,148.963,479.438,147.631,479.438,146.086z M490.276,186.467h-10.349v-29.412l10.349-1.404
		V186.467z"/>
	<path d="M523.639,184.803c-1.807,1.023-3.586,1.779-5.337,2.268c-1.752,0.49-3.554,0.736-5.403,0.736
		c-4.896,0-8.917-1.471-12.062-4.408c-3.146-2.938-4.718-6.66-4.718-11.164c0-4.68,1.692-8.602,5.076-11.77
		c3.385-3.166,7.634-4.75,12.748-4.75c1.872,0,3.7,0.213,5.484,0.637c1.784,0.426,3.504,1.063,5.158,1.91l-1.143,9.141
		c-1.611-0.979-3.162-1.725-4.652-2.236c-1.49-0.51-2.878-0.768-4.162-0.768c-2.307,0-4.223,0.703-5.745,2.105
		c-1.523,1.404-2.285,3.15-2.285,5.24c0,2.221,0.707,4.004,2.122,5.354c1.414,1.35,3.275,2.025,5.582,2.025
		c1.437,0,2.971-0.311,4.604-0.932c1.632-0.619,3.525-1.627,5.68-3.02L523.639,184.803z"/>
	<path d="M553.673,190.221c0.282-1.545,0.663-3.09,1.143-4.635c0.479-1.545,1.077-3.123,1.795-4.734
		c-2.721-2.436-4.771-5.207-6.153-8.307c-1.383-3.102-2.073-6.459-2.073-10.072c0-2.785,0.425-5.484,1.273-8.096
		s2.089-4.994,3.722-7.148c2.307-3.068,5.125-5.441,8.455-7.117s6.888-2.514,10.675-2.514c2.698,0,5.294,0.43,7.786,1.289
		c2.491,0.861,4.804,2.129,6.937,3.803c3.025,2.373,5.349,5.289,6.97,8.75s2.433,7.246,2.433,11.359c0,3.266-0.632,6.41-1.894,9.436
		c-1.263,3.025-3.036,5.646-5.321,7.867c-2.046,2.045-4.369,3.629-6.97,4.75s-5.196,1.682-7.786,1.682
		c-1.109,0-3.003-0.283-5.68-0.85l-0.065-0.033l-0.098,0.686c1.479,0.328,4.766,1.35,9.858,3.07
		c5.093,1.719,9.456,2.676,13.091,2.871l-2.742,8.488c-4.026-0.305-9.631-1.99-16.813-5.061c-0.936-0.391-1.644-0.686-2.122-0.881
		l-0.392-0.162C563.542,192.049,558.199,190.57,553.673,190.221z M560.006,162.799c0,4.113,1.202,7.559,3.607,10.332
		c2.404,2.775,5.37,4.164,8.896,4.164c3.547,0,6.518-1.383,8.912-4.146c2.394-2.764,3.591-6.213,3.591-10.35
		c0-4.156-1.197-7.621-3.591-10.396c-2.395-2.775-5.365-4.162-8.912-4.162c-3.525,0-6.491,1.387-8.896,4.162
		C561.208,155.178,560.006,158.643,560.006,162.799z"/>
	<path d="M622.194,157.055h10.153v29.412l-9.435,1.404v-5.746c-1.589,1.959-3.254,3.406-4.995,4.342s-3.646,1.404-5.713,1.404
		c-3.112,0-5.479-0.893-7.1-2.678c-1.622-1.783-2.433-4.395-2.433-7.834v-20.305h10.218v17.432c0,1.545,0.315,2.715,0.947,3.51
		c0.631,0.795,1.566,1.191,2.807,1.191c1.785,0,3.156-0.604,4.113-1.813c0.958-1.207,1.437-2.943,1.437-5.207V157.055z"/>
	<path d="M639.268,146.086c0-1.568,0.544-2.895,1.633-3.982c1.088-1.088,2.416-1.633,3.982-1.633c1.588,0,2.922,0.539,3.999,1.615
		c1.077,1.078,1.616,2.41,1.616,4c0,1.566-0.545,2.904-1.633,4.016c-1.088,1.109-2.415,1.664-3.982,1.664
		c-1.523,0-2.84-0.561-3.95-1.682C639.823,148.963,639.268,147.631,639.268,146.086z M650.106,186.467h-10.349v-29.412l10.349-1.404
		V186.467z"/>
	<path d="M653.664,186.467l13.156-21.676h-11.36l1.796-7.736h25.822l-13.156,21.643h12.764l-1.207,7.77H653.664z"/>
</g>
</svg>
